{"title":"Downton Abbey S01 Bon Feats DVDRIP x264 No Subs","uid":14140263,"size":141787194,"categoryP":"video","categoryS":"tv_shows","magnet":"?xt=urn:btih:caaec2f21d95355128ba58d557842af696e229b4&amp;dn=Downton+Abbey+S01+Bon+Feats+DVDRIP+x264+No+Subs&amp;tr=udp%3A%2F%2Ftracker.leechers-paradise.org%3A6969&amp;tr=udp%3A%2F%2Fzer0day.ch%3A1337&amp;tr=udp%3A%2F%2Fopen.demonii.com%3A1337&amp;tr=udp%3A%2F%2Ftracker.coppersurfer.tk%3A6969&amp;tr=udp%3A%2F%2Fexodus.desync.com%3A6969","seeders":0,"leechers":1,"uploader":"ChasVA","files":2,"time":1459601592,"description":"Bonus Features from the First Season\r\n\r\n(See the separate torrent for the Episodes)\r\n\r\n-=-=-=-=-=-=-=-=-=-=-=-=-=-=-=-=-=-=-=-=-=-=-=-\r\n\r\nTechnical Specifications:\r\n\r\nFormat : MPEG-4\r\nFormat profile : Base Media / Version 2\r\nCodec ID : mp42 (isom/iso2/avc1/mp41)\r\nOverall bit rate mode : Variable\r\nOverall bit rate : 930 Kbps\r\n\r\nVideo\r\n\r\nID : 1\r\nFormat : AVC\r\nFormat/Info : Advanced Video Codec\r\nFormat profile :   \r\nFormat settings, CABAC : Yes\r\nFormat settings, ReFrames : 4 frames\r\nCodec ID : avc1\r\nCodec ID/Info : Advanced Video Coding\r\nBit rate : 755 Kbps\r\nWidth : 720 pixels\r\nHeight : 480 pixels\r\nDisplay aspect ratio : 16:9\r\nOriginal display aspect ratio : 16:9\r\nFrame rate mode : Variable\r\nFrame rate : 23.976 (23976/1000) fps\r\nMinimum frame rate : 12.048 fps\r\nMaximum frame rate : 30.303 fps\r\n\r\nAudio\r\n\r\nID : 2\r\nFormat : AAC\r\nFormat/Info : Advanced Audio Codec\r\nFormat profile : LC\r\nCodec ID : 40\r\nBit rate mode : Variable\r\nBit rate : 160 Kbps\r\nChannel(s) : 2 channels\r\nChannel positions : Front: L R\r\nSampling rate : 48.0 KHz\r\nFrame rate : 46.875 fps (1024 spf)\r\nCompression mode : Lossy\r\nStream size : 78.7 MiB (17%)\r\nTitle : Stereo / Stereo\r\nLanguage : English\r\nDefault : Yes\r\n\r\nText\r\n\r\nID : 3\r\nFormat : mp4s\r\nCodec ID : E0\r\nBit rate mode : Variable\r\nBit rate : 7 074 bps\r\nStream size : 3.43 MiB (1%)\r\nLanguage : English\r\nDefault : Yes\r\nForced : No","torrent":{"xt":"urn:btih:caaec2f21d95355128ba58d557842af696e229b4","amp;dn":"Downton+Abbey+S01+Bon+Feats+DVDRIP+x264+No+Subs","amp;tr":["udp%3A%2F%2Ftracker.leechers-paradise.org%3A6969","udp%3A%2F%2Fzer0day.ch%3A1337","udp%3A%2F%2Fopen.demonii.com%3A1337","udp%3A%2F%2Ftracker.coppersurfer.tk%3A6969","udp%3A%2F%2Fexodus.desync.com%3A6969"],"infoHash":"caaec2f21d95355128ba58d557842af696e229b4","infoHashBuffer":{"type":"Buffer","data":[202,174,194,242,29,149,53,81,40,186,88,213,87,132,42,246,150,226,41,180]},"announce":[],"urlList":[]}}